<mxfile host="app.diagrams.net" agent="Mozilla/5.0 (Windows NT 10.0; Win64; x64) AppleWebKit/537.36 (KHTML, like Gecko) Chrome/136.0.0.0 Safari/537.36" version="27.0.1">
  <diagram name="Page-1" id="PBaqORVsrahaRMjl8j74">
    <mxGraphModel dx="4077" dy="2595" grid="1" gridSize="10" guides="1" tooltips="1" connect="1" arrows="1" fold="1" page="1" pageScale="1" pageWidth="850" pageHeight="1100" math="0" shadow="0">
      <root>
        <mxCell id="0" />
        <mxCell id="1" parent="0" />
        <mxCell id="Sy2_YG3hcjSNWglZqsNp-2" value="" style="shape=umlLifeline;perimeter=lifelinePerimeter;whiteSpace=wrap;html=1;container=1;dropTarget=0;collapsible=0;recursiveResize=0;outlineConnect=0;portConstraint=eastwest;newEdgeStyle={&quot;curved&quot;:0,&quot;rounded&quot;:0};participant=umlActor;" vertex="1" parent="1">
          <mxGeometry x="-830" y="-40" width="30" height="1720" as="geometry" />
        </mxCell>
        <mxCell id="Sy2_YG3hcjSNWglZqsNp-3" value="SimpleReaderHomepage" style="shape=umlLifeline;perimeter=lifelinePerimeter;whiteSpace=wrap;html=1;container=1;dropTarget=0;collapsible=0;recursiveResize=0;outlineConnect=0;portConstraint=eastwest;newEdgeStyle={&quot;curved&quot;:0,&quot;rounded&quot;:0};fontSize=14;fontStyle=1;fillColor=#dae8fc;strokeColor=#6c8ebf;" vertex="1" parent="1">
          <mxGeometry x="-690" y="-40" width="200" height="1720" as="geometry" />
        </mxCell>
        <mxCell id="Sy2_YG3hcjSNWglZqsNp-4" value="" style="html=1;points=[[0,0,0,0,5],[0,1,0,0,-5],[1,0,0,0,5],[1,1,0,0,-5]];perimeter=orthogonalPerimeter;outlineConnect=0;targetShapes=umlLifeline;portConstraint=eastwest;newEdgeStyle={&quot;curved&quot;:0,&quot;rounded&quot;:0};strokeColor=#000000;fillColor=#dae8fc;" vertex="1" parent="Sy2_YG3hcjSNWglZqsNp-3">
          <mxGeometry x="90" y="90" width="10" height="100" as="geometry" />
        </mxCell>
        <mxCell id="Sy2_YG3hcjSNWglZqsNp-6" value="SimpleReaderController" style="shape=umlLifeline;perimeter=lifelinePerimeter;whiteSpace=wrap;html=1;container=1;dropTarget=0;collapsible=0;recursiveResize=0;outlineConnect=0;portConstraint=eastwest;newEdgeStyle={&quot;curved&quot;:0,&quot;rounded&quot;:0};fontSize=14;fontStyle=1;fillColor=#dae8fc;strokeColor=#6c8ebf;" vertex="1" parent="1">
          <mxGeometry x="-440" y="-40" width="190" height="2080" as="geometry" />
        </mxCell>
        <mxCell id="Sy2_YG3hcjSNWglZqsNp-7" value="" style="html=1;points=[[0,0,0,0,5],[0,1,0,0,-5],[1,0,0,0,5],[1,1,0,0,-5]];perimeter=orthogonalPerimeter;outlineConnect=0;targetShapes=umlLifeline;portConstraint=eastwest;newEdgeStyle={&quot;curved&quot;:0,&quot;rounded&quot;:0};strokeColor=#000000;fillColor=#dae8fc;" vertex="1" parent="Sy2_YG3hcjSNWglZqsNp-6">
          <mxGeometry x="90" y="140" width="10" height="280" as="geometry" />
        </mxCell>
        <mxCell id="Sy2_YG3hcjSNWglZqsNp-65" value="" style="html=1;points=[[0,0,0,0,5],[0,1,0,0,-5],[1,0,0,0,5],[1,1,0,0,-5]];perimeter=orthogonalPerimeter;outlineConnect=0;targetShapes=umlLifeline;portConstraint=eastwest;newEdgeStyle={&quot;curved&quot;:0,&quot;rounded&quot;:0};strokeColor=#000000;fillColor=#dae8fc;" vertex="1" parent="Sy2_YG3hcjSNWglZqsNp-6">
          <mxGeometry x="90" y="1190" width="10" height="50" as="geometry" />
        </mxCell>
        <mxCell id="Sy2_YG3hcjSNWglZqsNp-78" value="" style="html=1;points=[[0,0,0,0,5],[0,1,0,0,-5],[1,0,0,0,5],[1,1,0,0,-5]];perimeter=orthogonalPerimeter;outlineConnect=0;targetShapes=umlLifeline;portConstraint=eastwest;newEdgeStyle={&quot;curved&quot;:0,&quot;rounded&quot;:0};strokeColor=#000000;fillColor=#dae8fc;" vertex="1" parent="Sy2_YG3hcjSNWglZqsNp-6">
          <mxGeometry x="90" y="1410" width="10" height="70" as="geometry" />
        </mxCell>
        <mxCell id="Sy2_YG3hcjSNWglZqsNp-12" value="Simple Reader" style="text;html=1;align=center;verticalAlign=middle;resizable=0;points=[];autosize=1;strokeColor=none;fillColor=none;fontSize=14;fontStyle=1" vertex="1" parent="1">
          <mxGeometry x="-875" y="-70" width="120" height="30" as="geometry" />
        </mxCell>
        <mxCell id="Sy2_YG3hcjSNWglZqsNp-13" value="clicks &quot;My Requests&quot;" style="html=1;verticalAlign=bottom;startArrow=oval;startFill=1;endArrow=block;startSize=8;curved=0;rounded=0;fontSize=13;fontStyle=2;labelBackgroundColor=none;" edge="1" parent="1">
          <mxGeometry width="60" relative="1" as="geometry">
            <mxPoint x="-810" y="90" as="sourcePoint" />
            <mxPoint x="-595" y="90" as="targetPoint" />
          </mxGeometry>
        </mxCell>
        <mxCell id="Sy2_YG3hcjSNWglZqsNp-14" value="showUserBookRequests()" style="html=1;verticalAlign=bottom;startArrow=oval;startFill=1;endArrow=block;startSize=8;curved=0;rounded=0;fontSize=13;fontStyle=2;labelBackgroundColor=none;" edge="1" parent="1">
          <mxGeometry width="60" relative="1" as="geometry">
            <mxPoint x="-590" y="120" as="sourcePoint" />
            <mxPoint x="-350" y="120" as="targetPoint" />
          </mxGeometry>
        </mxCell>
        <mxCell id="Sy2_YG3hcjSNWglZqsNp-15" value="SimpleReaderService" style="shape=umlLifeline;perimeter=lifelinePerimeter;whiteSpace=wrap;html=1;container=1;dropTarget=0;collapsible=0;recursiveResize=0;outlineConnect=0;portConstraint=eastwest;newEdgeStyle={&quot;curved&quot;:0,&quot;rounded&quot;:0};fontSize=14;fontStyle=1;fillColor=#dae8fc;strokeColor=#6c8ebf;" vertex="1" parent="1">
          <mxGeometry x="-170" y="-40" width="190" height="2210" as="geometry" />
        </mxCell>
        <mxCell id="Sy2_YG3hcjSNWglZqsNp-16" value="" style="html=1;points=[[0,0,0,0,5],[0,1,0,0,-5],[1,0,0,0,5],[1,1,0,0,-5]];perimeter=orthogonalPerimeter;outlineConnect=0;targetShapes=umlLifeline;portConstraint=eastwest;newEdgeStyle={&quot;curved&quot;:0,&quot;rounded&quot;:0};strokeColor=#000000;fillColor=#dae8fc;" vertex="1" parent="Sy2_YG3hcjSNWglZqsNp-15">
          <mxGeometry x="90" y="170" width="10" height="210" as="geometry" />
        </mxCell>
        <mxCell id="Sy2_YG3hcjSNWglZqsNp-66" value="" style="html=1;points=[[0,0,0,0,5],[0,1,0,0,-5],[1,0,0,0,5],[1,1,0,0,-5]];perimeter=orthogonalPerimeter;outlineConnect=0;targetShapes=umlLifeline;portConstraint=eastwest;newEdgeStyle={&quot;curved&quot;:0,&quot;rounded&quot;:0};strokeColor=#000000;fillColor=#dae8fc;" vertex="1" parent="Sy2_YG3hcjSNWglZqsNp-15">
          <mxGeometry x="90" y="1200" width="10" height="250" as="geometry" />
        </mxCell>
        <mxCell id="Sy2_YG3hcjSNWglZqsNp-18" value="retrieveBookRequests()" style="html=1;verticalAlign=bottom;startArrow=oval;startFill=1;endArrow=block;startSize=8;curved=0;rounded=0;fontSize=13;fontStyle=2;labelBackgroundColor=none;" edge="1" parent="1">
          <mxGeometry width="60" relative="1" as="geometry">
            <mxPoint x="-340" y="150" as="sourcePoint" />
            <mxPoint x="-75" y="150" as="targetPoint" />
          </mxGeometry>
        </mxCell>
        <mxCell id="Sy2_YG3hcjSNWglZqsNp-21" value="BookMapper" style="shape=umlLifeline;perimeter=lifelinePerimeter;whiteSpace=wrap;html=1;container=1;dropTarget=0;collapsible=0;recursiveResize=0;outlineConnect=0;portConstraint=eastwest;newEdgeStyle={&quot;curved&quot;:0,&quot;rounded&quot;:0};fontSize=14;fontStyle=1;fillColor=#dae8fc;strokeColor=#6c8ebf;" vertex="1" parent="1">
          <mxGeometry x="50" y="-40" width="120" height="2230" as="geometry" />
        </mxCell>
        <mxCell id="Sy2_YG3hcjSNWglZqsNp-22" value="" style="html=1;points=[[0,0,0,0,5],[0,1,0,0,-5],[1,0,0,0,5],[1,1,0,0,-5]];perimeter=orthogonalPerimeter;outlineConnect=0;targetShapes=umlLifeline;portConstraint=eastwest;newEdgeStyle={&quot;curved&quot;:0,&quot;rounded&quot;:0};strokeColor=#000000;fillColor=#dae8fc;" vertex="1" parent="Sy2_YG3hcjSNWglZqsNp-21">
          <mxGeometry x="55" y="200" width="10" height="130" as="geometry" />
        </mxCell>
        <mxCell id="Sy2_YG3hcjSNWglZqsNp-69" value="" style="html=1;points=[[0,0,0,0,5],[0,1,0,0,-5],[1,0,0,0,5],[1,1,0,0,-5]];perimeter=orthogonalPerimeter;outlineConnect=0;targetShapes=umlLifeline;portConstraint=eastwest;newEdgeStyle={&quot;curved&quot;:0,&quot;rounded&quot;:0};strokeColor=#000000;fillColor=#dae8fc;" vertex="1" parent="Sy2_YG3hcjSNWglZqsNp-21">
          <mxGeometry x="55" y="1230" width="10" height="50" as="geometry" />
        </mxCell>
        <mxCell id="Sy2_YG3hcjSNWglZqsNp-24" value="findByOwner()" style="html=1;verticalAlign=bottom;startArrow=oval;startFill=1;endArrow=block;startSize=8;curved=0;rounded=0;fontSize=13;fontStyle=2;labelBackgroundColor=none;" edge="1" parent="1" target="Sy2_YG3hcjSNWglZqsNp-22">
          <mxGeometry width="60" relative="1" as="geometry">
            <mxPoint x="-70" y="180" as="sourcePoint" />
            <mxPoint x="90" y="180" as="targetPoint" />
          </mxGeometry>
        </mxCell>
        <mxCell id="Sy2_YG3hcjSNWglZqsNp-25" value="DBManager" style="shape=umlLifeline;perimeter=lifelinePerimeter;whiteSpace=wrap;html=1;container=1;dropTarget=0;collapsible=0;recursiveResize=0;outlineConnect=0;portConstraint=eastwest;newEdgeStyle={&quot;curved&quot;:0,&quot;rounded&quot;:0};fontSize=14;fontStyle=1;fillColor=#dae8fc;strokeColor=#6c8ebf;" vertex="1" parent="1">
          <mxGeometry x="200" y="-40" width="100" height="2250" as="geometry" />
        </mxCell>
        <mxCell id="Sy2_YG3hcjSNWglZqsNp-26" value="" style="html=1;points=[[0,0,0,0,5],[0,1,0,0,-5],[1,0,0,0,5],[1,1,0,0,-5]];perimeter=orthogonalPerimeter;outlineConnect=0;targetShapes=umlLifeline;portConstraint=eastwest;newEdgeStyle={&quot;curved&quot;:0,&quot;rounded&quot;:0};strokeColor=#000000;fillColor=#dae8fc;" vertex="1" parent="Sy2_YG3hcjSNWglZqsNp-25">
          <mxGeometry x="45" y="210" width="10" height="100" as="geometry" />
        </mxCell>
        <mxCell id="Sy2_YG3hcjSNWglZqsNp-70" value="" style="html=1;points=[[0,0,0,0,5],[0,1,0,0,-5],[1,0,0,0,5],[1,1,0,0,-5]];perimeter=orthogonalPerimeter;outlineConnect=0;targetShapes=umlLifeline;portConstraint=eastwest;newEdgeStyle={&quot;curved&quot;:0,&quot;rounded&quot;:0};strokeColor=#000000;fillColor=#dae8fc;" vertex="1" parent="Sy2_YG3hcjSNWglZqsNp-25">
          <mxGeometry x="45" y="1240" width="10" height="50" as="geometry" />
        </mxCell>
        <mxCell id="Sy2_YG3hcjSNWglZqsNp-28" value="search books" style="html=1;verticalAlign=bottom;startArrow=oval;startFill=1;endArrow=block;startSize=8;curved=0;rounded=0;fontSize=13;fontStyle=2;labelBackgroundColor=none;" edge="1" parent="1">
          <mxGeometry width="60" relative="1" as="geometry">
            <mxPoint x="109.54761904761926" y="204" as="sourcePoint" />
            <mxPoint x="245" y="204" as="targetPoint" />
          </mxGeometry>
        </mxCell>
        <mxCell id="Sy2_YG3hcjSNWglZqsNp-29" value="return books" style="html=1;verticalAlign=bottom;endArrow=open;dashed=1;endSize=8;curved=0;rounded=0;fontSize=13;fontStyle=2" edge="1" parent="1" target="Sy2_YG3hcjSNWglZqsNp-21">
          <mxGeometry x="0.0036" relative="1" as="geometry">
            <mxPoint x="250" y="250" as="sourcePoint" />
            <mxPoint x="180" y="250" as="targetPoint" />
            <mxPoint as="offset" />
          </mxGeometry>
        </mxCell>
        <mxCell id="Sy2_YG3hcjSNWglZqsNp-30" value="return books" style="html=1;verticalAlign=bottom;endArrow=open;dashed=1;endSize=8;curved=0;rounded=0;fontSize=13;fontStyle=2" edge="1" parent="1">
          <mxGeometry relative="1" as="geometry">
            <mxPoint x="109.5" y="280" as="sourcePoint" />
            <mxPoint x="-70" y="280" as="targetPoint" />
          </mxGeometry>
        </mxCell>
        <mxCell id="Sy2_YG3hcjSNWglZqsNp-31" value="return books" style="html=1;verticalAlign=bottom;endArrow=open;dashed=1;endSize=8;curved=0;rounded=0;fontSize=13;fontStyle=2" edge="1" parent="1" target="Sy2_YG3hcjSNWglZqsNp-6">
          <mxGeometry relative="1" as="geometry">
            <mxPoint x="-80.5" y="310" as="sourcePoint" />
            <mxPoint x="-260" y="310" as="targetPoint" />
          </mxGeometry>
        </mxCell>
        <mxCell id="Sy2_YG3hcjSNWglZqsNp-32" value="MyRequests" style="shape=umlLifeline;perimeter=lifelinePerimeter;whiteSpace=wrap;html=1;container=1;dropTarget=0;collapsible=0;recursiveResize=0;outlineConnect=0;portConstraint=eastwest;newEdgeStyle={&quot;curved&quot;:0,&quot;rounded&quot;:0};fontSize=14;fontStyle=1;fillColor=#dae8fc;strokeColor=#6c8ebf;" vertex="1" parent="1">
          <mxGeometry x="320" y="-40" width="110" height="2240" as="geometry" />
        </mxCell>
        <mxCell id="Sy2_YG3hcjSNWglZqsNp-33" value="" style="html=1;points=[[0,0,0,0,5],[0,1,0,0,-5],[1,0,0,0,5],[1,1,0,0,-5]];perimeter=orthogonalPerimeter;outlineConnect=0;targetShapes=umlLifeline;portConstraint=eastwest;newEdgeStyle={&quot;curved&quot;:0,&quot;rounded&quot;:0};strokeColor=#000000;fillColor=#dae8fc;" vertex="1" parent="Sy2_YG3hcjSNWglZqsNp-32">
          <mxGeometry x="50" y="350" width="10" height="180" as="geometry" />
        </mxCell>
        <mxCell id="Sy2_YG3hcjSNWglZqsNp-52" value="" style="html=1;points=[[0,0,0,0,5],[0,1,0,0,-5],[1,0,0,0,5],[1,1,0,0,-5]];perimeter=orthogonalPerimeter;outlineConnect=0;targetShapes=umlLifeline;portConstraint=eastwest;newEdgeStyle={&quot;curved&quot;:0,&quot;rounded&quot;:0};strokeColor=#000000;fillColor=#dae8fc;" vertex="1" parent="Sy2_YG3hcjSNWglZqsNp-32">
          <mxGeometry x="50" y="740" width="10" height="70" as="geometry" />
        </mxCell>
        <mxCell id="Sy2_YG3hcjSNWglZqsNp-34" value="call" style="html=1;verticalAlign=bottom;startArrow=oval;startFill=1;endArrow=block;startSize=8;curved=0;rounded=0;fontSize=13;fontStyle=2;labelBackgroundColor=none;" edge="1" parent="1">
          <mxGeometry width="60" relative="1" as="geometry">
            <mxPoint x="-340" y="356" as="sourcePoint" />
            <mxPoint x="370" y="356" as="targetPoint" />
          </mxGeometry>
        </mxCell>
        <mxCell id="Sy2_YG3hcjSNWglZqsNp-35" value="alt" style="shape=umlFrame;whiteSpace=wrap;html=1;pointerEvents=0;" vertex="1" parent="1">
          <mxGeometry x="-910" y="390" width="1440" height="290" as="geometry" />
        </mxCell>
        <mxCell id="Sy2_YG3hcjSNWglZqsNp-36" value="Select Book" style="text;html=1;align=center;verticalAlign=middle;resizable=0;points=[];autosize=1;fontSize=14;fontStyle=2;fillColor=#f8cecc;strokeColor=#b85450;" vertex="1" parent="1">
          <mxGeometry x="-760" y="410" width="100" height="30" as="geometry" />
        </mxCell>
        <mxCell id="Sy2_YG3hcjSNWglZqsNp-37" value="select a Book&amp;nbsp;" style="html=1;verticalAlign=bottom;startArrow=oval;startFill=1;endArrow=block;startSize=8;curved=0;rounded=0;fontSize=13;fontStyle=2;labelBackgroundColor=none;entryX=1;entryY=1;entryDx=0;entryDy=-5;entryPerimeter=0;" edge="1" parent="1">
          <mxGeometry width="60" relative="1" as="geometry">
            <mxPoint x="-816" y="459" as="sourcePoint" />
            <mxPoint x="380" y="464" as="targetPoint" />
          </mxGeometry>
        </mxCell>
        <mxCell id="Sy2_YG3hcjSNWglZqsNp-38" value="Unavailable Book" style="text;html=1;align=center;verticalAlign=middle;resizable=0;points=[];autosize=1;fontSize=14;fontStyle=2;fillColor=#f8cecc;strokeColor=#b85450;" vertex="1" parent="1">
          <mxGeometry x="-780" y="510" width="130" height="30" as="geometry" />
        </mxCell>
        <mxCell id="Sy2_YG3hcjSNWglZqsNp-9" value="" style="html=1;points=[[0,0,0,0,5],[0,1,0,0,-5],[1,0,0,0,5],[1,1,0,0,-5]];perimeter=orthogonalPerimeter;outlineConnect=0;targetShapes=umlLifeline;portConstraint=eastwest;newEdgeStyle={&quot;curved&quot;:0,&quot;rounded&quot;:0};strokeColor=#000000;fillColor=#dae8fc;" vertex="1" parent="1">
          <mxGeometry x="370" y="560" width="10" height="70" as="geometry" />
        </mxCell>
        <mxCell id="Sy2_YG3hcjSNWglZqsNp-40" value="select a Book&amp;nbsp;" style="html=1;verticalAlign=bottom;startArrow=oval;startFill=1;endArrow=block;startSize=8;curved=0;rounded=0;fontSize=13;fontStyle=2;labelBackgroundColor=none;entryX=1;entryY=1;entryDx=0;entryDy=-5;entryPerimeter=0;" edge="1" parent="1">
          <mxGeometry width="60" relative="1" as="geometry">
            <mxPoint x="-816" y="580" as="sourcePoint" />
            <mxPoint x="380" y="585" as="targetPoint" />
          </mxGeometry>
        </mxCell>
        <mxCell id="Sy2_YG3hcjSNWglZqsNp-41" value="RequestFailed" style="shape=umlLifeline;perimeter=lifelinePerimeter;whiteSpace=wrap;html=1;container=1;dropTarget=0;collapsible=0;recursiveResize=0;outlineConnect=0;portConstraint=eastwest;newEdgeStyle={&quot;curved&quot;:0,&quot;rounded&quot;:0};fontSize=14;fontStyle=1;fillColor=#dae8fc;strokeColor=#6c8ebf;" vertex="1" parent="1">
          <mxGeometry x="450" y="-40" width="110" height="2240" as="geometry" />
        </mxCell>
        <mxCell id="Sy2_YG3hcjSNWglZqsNp-42" value="" style="html=1;points=[[0,0,0,0,5],[0,1,0,0,-5],[1,0,0,0,5],[1,1,0,0,-5]];perimeter=orthogonalPerimeter;outlineConnect=0;targetShapes=umlLifeline;portConstraint=eastwest;newEdgeStyle={&quot;curved&quot;:0,&quot;rounded&quot;:0};strokeColor=#000000;fillColor=#dae8fc;" vertex="1" parent="Sy2_YG3hcjSNWglZqsNp-41">
          <mxGeometry x="50" y="630" width="10" height="80" as="geometry" />
        </mxCell>
        <mxCell id="Sy2_YG3hcjSNWglZqsNp-43" value="call" style="html=1;verticalAlign=bottom;startArrow=oval;startFill=1;endArrow=block;startSize=8;curved=0;rounded=0;fontSize=13;fontStyle=2;labelBackgroundColor=none;" edge="1" parent="1" target="Sy2_YG3hcjSNWglZqsNp-42">
          <mxGeometry width="60" relative="1" as="geometry">
            <mxPoint x="380" y="620" as="sourcePoint" />
            <mxPoint x="555" y="620" as="targetPoint" />
          </mxGeometry>
        </mxCell>
        <mxCell id="Sy2_YG3hcjSNWglZqsNp-44" value="Contact Requester" style="text;html=1;align=center;verticalAlign=middle;resizable=0;points=[];autosize=1;fontSize=14;fontStyle=2;fillColor=#f8cecc;strokeColor=#b85450;" vertex="1" parent="1">
          <mxGeometry x="-770" y="930" width="140" height="30" as="geometry" />
        </mxCell>
        <mxCell id="Sy2_YG3hcjSNWglZqsNp-49" value="ReplyUser" style="shape=umlLifeline;perimeter=lifelinePerimeter;whiteSpace=wrap;html=1;container=1;dropTarget=0;collapsible=0;recursiveResize=0;outlineConnect=0;portConstraint=eastwest;newEdgeStyle={&quot;curved&quot;:0,&quot;rounded&quot;:0};fontSize=14;fontStyle=1;fillColor=#dae8fc;strokeColor=#6c8ebf;" vertex="1" parent="1">
          <mxGeometry x="600" y="-40" width="110" height="2240" as="geometry" />
        </mxCell>
        <mxCell id="Sy2_YG3hcjSNWglZqsNp-50" value="" style="html=1;points=[[0,0,0,0,5],[0,1,0,0,-5],[1,0,0,0,5],[1,1,0,0,-5]];perimeter=orthogonalPerimeter;outlineConnect=0;targetShapes=umlLifeline;portConstraint=eastwest;newEdgeStyle={&quot;curved&quot;:0,&quot;rounded&quot;:0};strokeColor=#000000;fillColor=#dae8fc;" vertex="1" parent="Sy2_YG3hcjSNWglZqsNp-49">
          <mxGeometry x="50" y="750" width="10" height="180" as="geometry" />
        </mxCell>
        <mxCell id="Sy2_YG3hcjSNWglZqsNp-51" value="" style="html=1;points=[[0,0,0,0,5],[0,1,0,0,-5],[1,0,0,0,5],[1,1,0,0,-5]];perimeter=orthogonalPerimeter;outlineConnect=0;targetShapes=umlLifeline;portConstraint=eastwest;newEdgeStyle={&quot;curved&quot;:0,&quot;rounded&quot;:0};strokeColor=#000000;fillColor=#dae8fc;" vertex="1" parent="Sy2_YG3hcjSNWglZqsNp-49">
          <mxGeometry x="50" y="990" width="10" height="70" as="geometry" />
        </mxCell>
        <mxCell id="Sy2_YG3hcjSNWglZqsNp-63" value="" style="html=1;points=[[0,0,0,0,5],[0,1,0,0,-5],[1,0,0,0,5],[1,1,0,0,-5]];perimeter=orthogonalPerimeter;outlineConnect=0;targetShapes=umlLifeline;portConstraint=eastwest;newEdgeStyle={&quot;curved&quot;:0,&quot;rounded&quot;:0};strokeColor=#000000;fillColor=#dae8fc;" vertex="1" parent="Sy2_YG3hcjSNWglZqsNp-49">
          <mxGeometry x="50" y="1100" width="10" height="40" as="geometry" />
        </mxCell>
        <mxCell id="Sy2_YG3hcjSNWglZqsNp-53" value="call" style="html=1;verticalAlign=bottom;startArrow=oval;startFill=1;endArrow=block;startSize=8;curved=0;rounded=0;fontSize=13;fontStyle=2;labelBackgroundColor=none;" edge="1" parent="1">
          <mxGeometry width="60" relative="1" as="geometry">
            <mxPoint x="374.25" y="724" as="sourcePoint" />
            <mxPoint x="650" y="724" as="targetPoint" />
          </mxGeometry>
        </mxCell>
        <mxCell id="Sy2_YG3hcjSNWglZqsNp-54" value="&quot;Approve or Decline&quot; book request" style="html=1;verticalAlign=bottom;startArrow=oval;startFill=1;endArrow=block;startSize=8;curved=0;rounded=0;fontSize=13;fontStyle=2;labelBackgroundColor=none;" edge="1" parent="1">
          <mxGeometry width="60" relative="1" as="geometry">
            <mxPoint x="-815.75" y="807" as="sourcePoint" />
            <mxPoint x="650" y="807" as="targetPoint" />
          </mxGeometry>
        </mxCell>
        <mxCell id="Sy2_YG3hcjSNWglZqsNp-55" value="alt" style="shape=umlFrame;whiteSpace=wrap;html=1;pointerEvents=0;" vertex="1" parent="1">
          <mxGeometry x="-930" y="750" width="1830" height="370" as="geometry" />
        </mxCell>
        <mxCell id="Sy2_YG3hcjSNWglZqsNp-56" value="Reply to Request" style="text;html=1;align=center;verticalAlign=middle;resizable=0;points=[];autosize=1;fontSize=14;fontStyle=2;fillColor=#f8cecc;strokeColor=#b85450;" vertex="1" parent="1">
          <mxGeometry x="-770" y="770" width="130" height="30" as="geometry" />
        </mxCell>
        <mxCell id="Sy2_YG3hcjSNWglZqsNp-5" value="" style="html=1;points=[[0,0,0,0,5],[0,1,0,0,-5],[1,0,0,0,5],[1,1,0,0,-5]];perimeter=orthogonalPerimeter;outlineConnect=0;targetShapes=umlLifeline;portConstraint=eastwest;newEdgeStyle={&quot;curved&quot;:0,&quot;rounded&quot;:0};strokeColor=#000000;fillColor=#dae8fc;" vertex="1" parent="1">
          <mxGeometry x="-350" y="830" width="10" height="50" as="geometry" />
        </mxCell>
        <mxCell id="Sy2_YG3hcjSNWglZqsNp-57" value="deleteBookRequest()" style="html=1;verticalAlign=bottom;startArrow=oval;startFill=1;endArrow=block;startSize=8;curved=0;rounded=0;fontSize=13;fontStyle=2;labelBackgroundColor=none;" edge="1" parent="1">
          <mxGeometry width="60" relative="1" as="geometry">
            <mxPoint x="654.5" y="856" as="sourcePoint" />
            <mxPoint x="-340" y="856" as="targetPoint" />
          </mxGeometry>
        </mxCell>
        <mxCell id="Sy2_YG3hcjSNWglZqsNp-45" value="click Contact Requester" style="html=1;verticalAlign=bottom;startArrow=oval;startFill=1;endArrow=block;startSize=8;curved=0;rounded=0;fontSize=13;fontStyle=2;labelBackgroundColor=none;" edge="1" parent="1" target="Sy2_YG3hcjSNWglZqsNp-51">
          <mxGeometry width="60" relative="1" as="geometry">
            <mxPoint x="-810" y="980" as="sourcePoint" />
            <mxPoint x="376" y="980" as="targetPoint" />
          </mxGeometry>
        </mxCell>
        <mxCell id="Sy2_YG3hcjSNWglZqsNp-58" value="ContactRequester" style="shape=umlLifeline;perimeter=lifelinePerimeter;whiteSpace=wrap;html=1;container=1;dropTarget=0;collapsible=0;recursiveResize=0;outlineConnect=0;portConstraint=eastwest;newEdgeStyle={&quot;curved&quot;:0,&quot;rounded&quot;:0};fontSize=14;fontStyle=1;fillColor=#dae8fc;strokeColor=#6c8ebf;" vertex="1" parent="1">
          <mxGeometry x="760" y="-40" width="150" height="2240" as="geometry" />
        </mxCell>
        <mxCell id="Sy2_YG3hcjSNWglZqsNp-60" value="" style="html=1;points=[[0,0,0,0,5],[0,1,0,0,-5],[1,0,0,0,5],[1,1,0,0,-5]];perimeter=orthogonalPerimeter;outlineConnect=0;targetShapes=umlLifeline;portConstraint=eastwest;newEdgeStyle={&quot;curved&quot;:0,&quot;rounded&quot;:0};strokeColor=#000000;fillColor=#dae8fc;" vertex="1" parent="Sy2_YG3hcjSNWglZqsNp-58">
          <mxGeometry x="70" y="1030" width="10" height="100" as="geometry" />
        </mxCell>
        <mxCell id="Sy2_YG3hcjSNWglZqsNp-61" value="call" style="html=1;verticalAlign=bottom;startArrow=oval;startFill=1;endArrow=block;startSize=8;curved=0;rounded=0;fontSize=13;fontStyle=2;labelBackgroundColor=none;" edge="1" parent="1">
          <mxGeometry width="60" relative="1" as="geometry">
            <mxPoint x="660" y="1009" as="sourcePoint" />
            <mxPoint x="830" y="1009" as="targetPoint" />
          </mxGeometry>
        </mxCell>
        <mxCell id="Sy2_YG3hcjSNWglZqsNp-62" value="communicate with requester &amp;amp; click &quot;Back&quot;" style="html=1;verticalAlign=bottom;startArrow=oval;startFill=1;endArrow=block;startSize=8;curved=0;rounded=0;fontSize=13;fontStyle=2;labelBackgroundColor=none;" edge="1" parent="1">
          <mxGeometry x="-0.0001" width="60" relative="1" as="geometry">
            <mxPoint x="-815.6764705882347" y="1037" as="sourcePoint" />
            <mxPoint x="830" y="1037" as="targetPoint" />
            <mxPoint as="offset" />
          </mxGeometry>
        </mxCell>
        <mxCell id="Sy2_YG3hcjSNWglZqsNp-64" value="call" style="html=1;verticalAlign=bottom;startArrow=oval;startFill=1;endArrow=block;startSize=8;curved=0;rounded=0;fontSize=13;fontStyle=2;labelBackgroundColor=none;" edge="1" parent="1">
          <mxGeometry width="60" relative="1" as="geometry">
            <mxPoint x="829.9999999999995" y="1077" as="sourcePoint" />
            <mxPoint x="659.9999999999995" y="1077" as="targetPoint" />
          </mxGeometry>
        </mxCell>
        <mxCell id="Sy2_YG3hcjSNWglZqsNp-67" value="deleteBookRequest()" style="html=1;verticalAlign=bottom;startArrow=oval;startFill=1;endArrow=block;startSize=8;curved=0;rounded=0;fontSize=13;fontStyle=2;labelBackgroundColor=none;" edge="1" parent="1">
          <mxGeometry width="60" relative="1" as="geometry">
            <mxPoint x="-345.6764705882347" y="1172" as="sourcePoint" />
            <mxPoint x="-80" y="1172" as="targetPoint" />
          </mxGeometry>
        </mxCell>
        <mxCell id="Sy2_YG3hcjSNWglZqsNp-68" value="delete(book)" style="html=1;verticalAlign=bottom;startArrow=oval;startFill=1;endArrow=block;startSize=8;curved=0;rounded=0;fontSize=13;fontStyle=2;labelBackgroundColor=none;" edge="1" parent="1">
          <mxGeometry width="60" relative="1" as="geometry">
            <mxPoint x="-70" y="1202" as="sourcePoint" />
            <mxPoint x="105" y="1202" as="targetPoint" />
          </mxGeometry>
        </mxCell>
        <mxCell id="Sy2_YG3hcjSNWglZqsNp-71" value="delete book" style="html=1;verticalAlign=bottom;startArrow=oval;startFill=1;endArrow=block;startSize=8;curved=0;rounded=0;fontSize=13;fontStyle=2;labelBackgroundColor=none;" edge="1" parent="1">
          <mxGeometry width="60" relative="1" as="geometry">
            <mxPoint x="109.66666666666652" y="1226" as="sourcePoint" />
            <mxPoint x="245" y="1226" as="targetPoint" />
          </mxGeometry>
        </mxCell>
        <mxCell id="Sy2_YG3hcjSNWglZqsNp-76" value="stateOfRequest()" style="html=1;align=left;spacingLeft=2;endArrow=block;rounded=0;edgeStyle=orthogonalEdgeStyle;curved=0;rounded=0;fontSize=13;fontStyle=2" edge="1" parent="1">
          <mxGeometry relative="1" as="geometry">
            <mxPoint x="-70" y="1270" as="sourcePoint" />
            <Array as="points">
              <mxPoint x="-40" y="1300" />
            </Array>
            <mxPoint x="-65" y="1300.0588235294122" as="targetPoint" />
          </mxGeometry>
        </mxCell>
        <mxCell id="Sy2_YG3hcjSNWglZqsNp-77" value="sendEmail()" style="html=1;align=left;spacingLeft=2;endArrow=block;rounded=0;edgeStyle=orthogonalEdgeStyle;curved=0;rounded=0;fontSize=13;fontStyle=2" edge="1" parent="1">
          <mxGeometry relative="1" as="geometry">
            <mxPoint x="-70" y="1330" as="sourcePoint" />
            <Array as="points">
              <mxPoint x="-40" y="1360" />
            </Array>
            <mxPoint x="-65" y="1360.0588235294122" as="targetPoint" />
          </mxGeometry>
        </mxCell>
        <mxCell id="Sy2_YG3hcjSNWglZqsNp-79" value="call" style="html=1;verticalAlign=bottom;startArrow=oval;startFill=1;endArrow=block;startSize=8;curved=0;rounded=0;fontSize=13;fontStyle=2;labelBackgroundColor=none;" edge="1" parent="1">
          <mxGeometry width="60" relative="1" as="geometry">
            <mxPoint x="-80" y="1388" as="sourcePoint" />
            <mxPoint x="-345.5" y="1388" as="targetPoint" />
          </mxGeometry>
        </mxCell>
        <mxCell id="Sy2_YG3hcjSNWglZqsNp-80" value="RequestReplied" style="shape=umlLifeline;perimeter=lifelinePerimeter;whiteSpace=wrap;html=1;container=1;dropTarget=0;collapsible=0;recursiveResize=0;outlineConnect=0;portConstraint=eastwest;newEdgeStyle={&quot;curved&quot;:0,&quot;rounded&quot;:0};fontSize=14;fontStyle=1;fillColor=#dae8fc;strokeColor=#6c8ebf;" vertex="1" parent="1">
          <mxGeometry x="960" y="-40" width="120" height="2240" as="geometry" />
        </mxCell>
        <mxCell id="Sy2_YG3hcjSNWglZqsNp-81" value="" style="html=1;points=[[0,0,0,0,5],[0,1,0,0,-5],[1,0,0,0,5],[1,1,0,0,-5]];perimeter=orthogonalPerimeter;outlineConnect=0;targetShapes=umlLifeline;portConstraint=eastwest;newEdgeStyle={&quot;curved&quot;:0,&quot;rounded&quot;:0};strokeColor=#000000;fillColor=#dae8fc;" vertex="1" parent="Sy2_YG3hcjSNWglZqsNp-80">
          <mxGeometry x="55" y="1440" width="10" height="50" as="geometry" />
        </mxCell>
        <mxCell id="Sy2_YG3hcjSNWglZqsNp-82" value="call" style="html=1;verticalAlign=bottom;startArrow=oval;startFill=1;endArrow=block;startSize=8;curved=0;rounded=0;fontSize=13;fontStyle=2;labelBackgroundColor=none;" edge="1" parent="1">
          <mxGeometry width="60" relative="1" as="geometry">
            <mxPoint x="-340.00000000000045" y="1425" as="sourcePoint" />
            <mxPoint x="1019.5" y="1425" as="targetPoint" />
          </mxGeometry>
        </mxCell>
      </root>
    </mxGraphModel>
  </diagram>
</mxfile>
